{"title":"Hot Chelle Rae - Hung Up [Music Video] 1080p [Sbyky]","uid":9303942,"size":87870341,"categoryP":"video","categoryS":"music_videos","magnet":"?xt=urn:btih:3da80a44178f62f2a24628a95b4726e99251c176&amp;dn=Hot+Chelle+Rae+-+Hung+Up+%5BMusic+Video%5D+1080p+%5BSbyky%5D&amp;tr=udp%3A%2F%2Ftracker.openbittorrent.com%3A80&amp;tr=udp%3A%2F%2Fopen.demonii.com%3A1337&amp;tr=udp%3A%2F%2Ftracker.coppersurfer.tk%3A6969&amp;tr=udp%3A%2F%2Fexodus.desync.com%3A6969","seeders":0,"leechers":1,"uploader":"Sbyky","files":1,"time":1386284019,"description":"\n\nGeneral\nComplete name                            : Hot Chelle Rae - Hung Up [Music Video] 1080p [Sbyky].MP4\nFormat                                   : MPEG-4\nFormat profile                           : Base Media\nCodec ID                                 : isom\nFile size                                : 83.8 MiB\nDuration                                 : 3mn 12s\nOverall bit rate mode                    : Variable\nOverall bit rate                         : 3 650 Kbps\nEncoded date                             : UTC 2013-11-13 20:26:15\nTagged date                              : UTC 2013-11-13 20:26:15\n\nVideo\nID                                       : 1\nFormat                                   : AVC\nFormat/Info                              : Advanced Video Codec\nFormat profile                           : &lt;a class=&quot;__cf_email__&quot; href=&quot;/cdn-cgi/l/email-protection&quot; data-cfemail=&quot;672f0e000f272b534957&quot;&gt;[email&amp;#160;protected]&lt;/a&gt;&lt;script data-cfhash='f9e31' type=&quot;text/javascript&quot;&gt;\n/* &lt;![CDATA[ */!function(){try{var t=&quot;currentScript&quot;in document?document.currentScript:function(){for(var t=document.getElementsByTagName(&quot;script&quot;),e=t.length;e--;)if(t[e].getAttribute(&quot;data-cfhash&quot;))return t[e]}();if(t&amp;&amp;t.previousSibling){var e,r,n,i,c=t.previousSibling,a=c.getAttribute(&quot;data-cfemail&quot;);if(a){for(e=&quot;&quot;,r=parseInt(a.substr(0,2),16),n=2;a.length-n;n+=2)i=parseInt(a.substr(n,2),16)^r,e+=String.fromCharCode(i);e=document.createTextNode(e),c.parentNode.replaceChild(e,c)}t.parentNode.removeChild(t);}}catch(u){}}()/* ]]&gt; */&lt;/script&gt;\nFormat settings, CABAC                   : Yes\nFormat settings, ReFrames                : 3 frames\nCodec ID                                 : avc1\nCodec ID/Info                            : Advanced Video Coding\nDuration                                 : 3mn 12s\nDuration_LastFrame                       : -42ms\nBit rate                                 : 3 394 Kbps\nWidth                                    : 1 920 pixels\nHeight                                   : 1 080 pixels\nDisplay aspect ratio                     : 16:9\nFrame rate mode                          : Constant\nFrame rate                               : 23.976 fps\nColor space                              : YUV\nChroma subsampling                       : 4:2:0\nBit depth                                : 8 bits\nScan type                                : Progressive\nBits/(Pixel*Frame)                       : 0.068\nStream size                              : 77.9 MiB (93%)\nEncoded date                             : UTC 2013-11-13 20:26:15\nTagged date                              : UTC 2013-11-13 20:26:15\n\nAudio\nID                                       : 2\nFormat                                   : AAC\nFormat/Info                              : Advanced Audio Codec\nFormat profile                           : LC\nCodec ID                                 : 40\nDuration                                 : 3mn 12s\nBit rate mode                            : Variable\nBit rate                                 : 254 Kbps\nChannel(s)                               : 2 channels\nChannel positions                        : Front: L R\nSampling rate                            : 44.1 KHz\nCompression mode                         : Lossy\nDelay relative to video                  : 42ms\nStream size                              : 5.82 MiB (7%)\nEncoded date                             : UTC 2013-11-13 20:24:51\nTagged date                              : UTC 2013-11-13 20:24:51\n\nShared By Sbyky\n","torrent":{"xt":"urn:btih:3da80a44178f62f2a24628a95b4726e99251c176","amp;dn":"Hot+Chelle+Rae+-+Hung+Up+%5BMusic+Video%5D+1080p+%5BSbyky%5D","amp;tr":["udp%3A%2F%2Ftracker.openbittorrent.com%3A80","udp%3A%2F%2Fopen.demonii.com%3A1337","udp%3A%2F%2Ftracker.coppersurfer.tk%3A6969","udp%3A%2F%2Fexodus.desync.com%3A6969"],"infoHash":"3da80a44178f62f2a24628a95b4726e99251c176","infoHashBuffer":{"type":"Buffer","data":[61,168,10,68,23,143,98,242,162,70,40,169,91,71,38,233,146,81,193,118]},"announce":[],"urlList":[]}}